<?xml version="1.0" encoding="utf-8"?>
<!-- Generator: Adobe Illustrator 24.0.1, SVG Export Plug-In . SVG Version: 6.00 Build 0)  -->
<svg version="1.1" id="Layer_1" xmlns="http://www.w3.org/2000/svg" xmlns:xlink="http://www.w3.org/1999/xlink" x="0px" y="0px"
	 viewBox="0 0 327.9 104.6" style="enable-background:new 0 0 327.9 104.6;" xml:space="preserve">
<style type="text/css">
	.st0{fill:url(#SVGID_1_);}
	.st1{fill:url(#SVGID_2_);}
	.st2{fill:url(#SVGID_3_);}
	.st3{fill:url(#SVGID_4_);}
	.st4{fill:url(#SVGID_5_);}
	.st5{fill:url(#SVGID_6_);}
	.st6{fill:url(#SVGID_7_);}
	.st7{fill:url(#SVGID_8_);}
	.st8{fill:url(#SVGID_9_);}
	.st9{fill:url(#SVGID_10_);}
	.st10{font-family:'ChelseaMarket-Regular';}
	.st11{font-size:68px;}
</style>
<title>logo-black</title>
<g>
	
		<linearGradient id="SVGID_1_" gradientUnits="userSpaceOnUse" x1="-3.6949" y1="85.8574" x2="45.3528" y2="13.1412" gradientTransform="matrix(1 0 0 -1 0 103.8898)">
		<stop  offset="0" style="stop-color:#2360B1"/>
		<stop  offset="0.25" style="stop-color:#256FBF"/>
		<stop  offset="0.5594" style="stop-color:#2360B1"/>
		<stop  offset="0.8" style="stop-color:#A02D6E"/>
		<stop  offset="0.9" style="stop-color:#F3506F"/>
		<stop  offset="1" style="stop-color:#FCB450"/>
	</linearGradient>
	<path class="st0" d="M27.4,79.9l7.5,14c5.9-3.7,11.7-7.5,17.4-11.5l-23.5-4.3C27.3,77.8,26.7,78.6,27.4,79.9z"/>
	
		<linearGradient id="SVGID_2_" gradientUnits="userSpaceOnUse" x1="-26.2821" y1="70.6222" x2="22.7657" y2="-2.0941" gradientTransform="matrix(1 0 0 -1 0 103.8898)">
		<stop  offset="0" style="stop-color:#2360B1"/>
		<stop  offset="0.25" style="stop-color:#256FBF"/>
		<stop  offset="0.5594" style="stop-color:#2360B1"/>
		<stop  offset="0.8" style="stop-color:#A02D6E"/>
		<stop  offset="0.9" style="stop-color:#F3506F"/>
		<stop  offset="1" style="stop-color:#FCB450"/>
	</linearGradient>
	<path class="st1" d="M19.1,76.3c-0.3-0.1-1.4,0.6-2.6,1.5L0.2,89.9c-1.7,12.3,8.6,19.3,22.4,11.2c2.6-1.5,5.2-3,7.8-4.5l-9.5-17.9
		C20.1,77.4,19.4,76.3,19.1,76.3z"/>
	
		<linearGradient id="SVGID_3_" gradientUnits="userSpaceOnUse" x1="31.1673" y1="109.3723" x2="80.2151" y2="36.656" gradientTransform="matrix(1 0 0 -1 0 103.8898)">
		<stop  offset="0" style="stop-color:#2360B1"/>
		<stop  offset="0.25" style="stop-color:#256FBF"/>
		<stop  offset="0.5594" style="stop-color:#2360B1"/>
		<stop  offset="0.8" style="stop-color:#A02D6E"/>
		<stop  offset="0.9" style="stop-color:#F3506F"/>
		<stop  offset="1" style="stop-color:#FCB450"/>
	</linearGradient>
	<path class="st2" d="M65.6,41.2L56,48.3c-1.2,0.9-1.3,2.4-0.2,3.4L72,67.9c10.1-7.5,11.5-17.7,4.9-26.3l-6.5-1.4
		C68.9,39.9,66.8,40.3,65.6,41.2z"/>
	
		<linearGradient id="SVGID_4_" gradientUnits="userSpaceOnUse" x1="6.2445" y1="92.5616" x2="55.2922" y2="19.8454" gradientTransform="matrix(1 0 0 -1 0 103.8898)">
		<stop  offset="0" style="stop-color:#2360B1"/>
		<stop  offset="0.25" style="stop-color:#256FBF"/>
		<stop  offset="0.5594" style="stop-color:#2360B1"/>
		<stop  offset="0.8" style="stop-color:#A02D6E"/>
		<stop  offset="0.9" style="stop-color:#F3506F"/>
		<stop  offset="1" style="stop-color:#FCB450"/>
	</linearGradient>
	<path class="st3" d="M51.6,54.9c-1-1-2.8-1.1-4-0.3L26.4,70.4c-1.2,0.9-0.9,1.8,0.5,2l31.3,5.8c3.2-2.3,6.4-4.7,9.6-7.2L51.6,54.9z
		"/>
	
		<linearGradient id="SVGID_5_" gradientUnits="userSpaceOnUse" x1="24.0964" y1="104.6029" x2="73.1441" y2="31.8867" gradientTransform="matrix(1 0 0 -1 0 103.8898)">
		<stop  offset="0" style="stop-color:#2360B1"/>
		<stop  offset="0.25" style="stop-color:#256FBF"/>
		<stop  offset="0.5594" style="stop-color:#2360B1"/>
		<stop  offset="0.8" style="stop-color:#A02D6E"/>
		<stop  offset="0.9" style="stop-color:#F3506F"/>
		<stop  offset="1" style="stop-color:#FCB450"/>
	</linearGradient>
	<path class="st4" d="M58.4,37.6l-18.7-4.1c-1.4-0.3-1.7,0.3-0.7,1.3l9.4,9.4c1,1,2.8,1.1,4,0.3l6.5-4.8
		C60,38.9,59.8,37.9,58.4,37.6z"/>
	
		<linearGradient id="SVGID_6_" gradientUnits="userSpaceOnUse" x1="4.5736" y1="91.4346" x2="53.6213" y2="18.7183" gradientTransform="matrix(1 0 0 -1 0 103.8898)">
		<stop  offset="0" style="stop-color:#2360B1"/>
		<stop  offset="0.25" style="stop-color:#256FBF"/>
		<stop  offset="0.5594" style="stop-color:#2360B1"/>
		<stop  offset="0.8" style="stop-color:#A02D6E"/>
		<stop  offset="0.9" style="stop-color:#F3506F"/>
		<stop  offset="1" style="stop-color:#FCB450"/>
	</linearGradient>
	<path class="st5" d="M21.5,24.8L1.8,5.1c-2.4,4-2.6,10.1,0.6,17l18.4,4C22.2,26.4,22.5,25.8,21.5,24.8z"/>
	
		<linearGradient id="SVGID_7_" gradientUnits="userSpaceOnUse" x1="-16.5802" y1="77.1663" x2="32.4675" y2="4.45" gradientTransform="matrix(1 0 0 -1 0 103.8898)">
		<stop  offset="0" style="stop-color:#2360B1"/>
		<stop  offset="0.25" style="stop-color:#256FBF"/>
		<stop  offset="0.5594" style="stop-color:#2360B1"/>
		<stop  offset="0.8" style="stop-color:#A02D6E"/>
		<stop  offset="0.9" style="stop-color:#F3506F"/>
		<stop  offset="1" style="stop-color:#FCB450"/>
	</linearGradient>
	<path class="st6" d="M15.2,68.2L6.6,52c0,5.5-0.4,11-1.2,16.4l8.4,1.6C15.3,70.3,15.9,69.4,15.2,68.2z"/>
	
		<linearGradient id="SVGID_8_" gradientUnits="userSpaceOnUse" x1="24.2243" y1="104.6892" x2="73.272" y2="31.9729" gradientTransform="matrix(1 0 0 -1 0 103.8898)">
		<stop  offset="0" style="stop-color:#2360B1"/>
		<stop  offset="0.25" style="stop-color:#256FBF"/>
		<stop  offset="0.5594" style="stop-color:#2360B1"/>
		<stop  offset="0.8" style="stop-color:#A02D6E"/>
		<stop  offset="0.9" style="stop-color:#F3506F"/>
		<stop  offset="1" style="stop-color:#FCB450"/>
	</linearGradient>
	<path class="st7" d="M35.4,29.3L61.9,35c1.4,0.3,3.5-0.1,4.7-1l0.9-0.7c-14.5-11-28.9-21-45-29.8c-6.9-4.1-12.9-4.3-17-2L31,26.9
		C32,27.9,34,29,35.4,29.3z"/>
	
		<linearGradient id="SVGID_9_" gradientUnits="userSpaceOnUse" x1="-24.6778" y1="71.7043" x2="24.3699" y2="-1.012" gradientTransform="matrix(1 0 0 -1 0 103.8898)">
		<stop  offset="0" style="stop-color:#2360B1"/>
		<stop  offset="0.25" style="stop-color:#256FBF"/>
		<stop  offset="0.5594" style="stop-color:#2360B1"/>
		<stop  offset="0.8" style="stop-color:#A02D6E"/>
		<stop  offset="0.9" style="stop-color:#F3506F"/>
		<stop  offset="1" style="stop-color:#FCB450"/>
	</linearGradient>
	<path class="st8" d="M9,74.4l-4.4-0.8c-0.5,2.7-1.1,5.3-1.9,7.9l6.7-5C10.6,75.6,10.4,74.7,9,74.4z"/>
	
		<linearGradient id="SVGID_10_" gradientUnits="userSpaceOnUse" x1="2.9963" y1="90.3707" x2="52.044" y2="17.6544" gradientTransform="matrix(1 0 0 -1 0 103.8898)">
		<stop  offset="0" style="stop-color:#2360B1"/>
		<stop  offset="0.25" style="stop-color:#256FBF"/>
		<stop  offset="0.5594" style="stop-color:#2360B1"/>
		<stop  offset="0.8" style="stop-color:#A02D6E"/>
		<stop  offset="0.9" style="stop-color:#F3506F"/>
		<stop  offset="1" style="stop-color:#FCB450"/>
	</linearGradient>
	<path class="st9" d="M19.8,65.6c0.7,1.3,2.2,1.6,3.3,0.7l20.8-15.5c1.2-0.9,1.3-2.4,0.2-3.4L29.5,32.8c-1-1-3-2.1-4.4-2.4L3.4,25.7
		c1.1,4.5,1.9,9.1,2.5,13.8L19.8,65.6z"/>
</g>
<g>
	<text transform="matrix(1 0 0 1 105 74.8898)" class="st10 st11">HOTEL</text>
</g>
</svg>
